{"title":"Keyhole.2011.LIMITED.BRRip.XviD-eXceSs","uid":7397401,"size":1466143393,"categoryP":"video","categoryS":"movies","magnet":"?xt=urn:btih:6db18d7271eb1c246b407255ed47cf797118fc63&amp;dn=Keyhole.2011.LIMITED.BRRip.XviD-eXceSs&amp;tr=udp%3A%2F%2Ftracker.openbittorrent.com%3A80&amp;tr=udp%3A%2F%2Fopen.demonii.com%3A1337&amp;tr=udp%3A%2F%2Ftracker.coppersurfer.tk%3A6969&amp;tr=udp%3A%2F%2Fexodus.desync.com%3A6969","seeders":0,"leechers":1,"uploader":"tonioferah","files":3,"time":1340957752,"description":"Visionary Canadian filmmaker Guy Maddin takes viewers on a surreal journey into the psyche of a desperate gangster backed into a dangerous corner in this surreal, psycho-sexual take on Homer's Odyssey. Late one night, a group of gangsters shoot their way into the living room of a large house and wait anxiously for the arrival of their leader, Ulysses Pick (Jason Patric). Ulysses has a knack for getting out of tense situations, and with the cops all around his cohorts need him now more than ever. But when Ulysses arrives with a teenage girl and a bound young man in tow, some of his henchmen start to think it's time for a new boss to take over. An already tense situation turns downright surreal as Ulysses begins venturing through the labyrinthine house in search of his wife Hyacinth (Isabella Rossellini), who remains locked in her room somewhere on an upper floor. Meanwhile, Hyacinth's father offers cryptic commentary on the unfolding events, and the harder Ulysses searches for his wife the more secrets he begins to uncover about his eccentric family.\n\n_________________________________________\n\n\nFormat : AVI\nFormat/Info : Audio Video Interleave\nFile size : 1.36 GiB\nDuration : 1h 33mn\nOverall bit rate : 2 090 Kbps\nWriting application : VirtualDubMod 1.5.10.2 (build 2540/release)\nWriting library : VirtualDubMod build 2540/release\n\nVideo\nID : 0\nFormat : MPEG-4 Visual\nFormat profile : Advanced Simple@L5\nFormat settings, BVOP : 2\nFormat settings, QPel : No\nFormat settings, GMC : No warppoints\nFormat settings, Matrix : Default (H.263)\nMuxing mode : Packed bitstream\nCodec ID : XVID\nCodec ID/Hint : XviD\nDuration : 1h 33mn\nBit rate : 1 921 Kbps\nWidth : 624 pixels\nHeight : 352 pixels\nDisplay aspect ratio : 16:9\nFrame rate : 23.976 fps\nColor space : YUV\nChroma subsampling : 4:2:0\nBit depth : 8 bits\nScan type : Progressive\nCompression mode : Lossy\nBits/(Pixel*Frame) : 0.365\nStream size : 1.25 GiB (92%)\nWriting library : XviD 1.2.1 (UTC 2008-12-04)\n\nAudio\nID : 1\nFormat : MPEG Audio\nFormat version : Version 1\nFormat profile : Layer 3\nMode : Joint stereo\nMode extension : MS Stereo\nCodec ID : 55\nCodec ID/Hint : MP3\nDuration : 1h 33mn\nBit rate mode : Constant\nBit rate : 160 Kbps\nChannel(s) : 2 channels\nSampling rate : 44.1 KHz\nCompression mode : Lossy\nStream size : 107 MiB (8%)\nAlignment : Split accross interleaves\nInterleave, duration : 42 ms (1.00 video frame)\nInterleave, preload duration : 500 ms\nWriting library : LAME3.98.2","torrent":{"xt":"urn:btih:6db18d7271eb1c246b407255ed47cf797118fc63","amp;dn":"Keyhole.2011.LIMITED.BRRip.XviD-eXceSs","amp;tr":["udp%3A%2F%2Ftracker.openbittorrent.com%3A80","udp%3A%2F%2Fopen.demonii.com%3A1337","udp%3A%2F%2Ftracker.coppersurfer.tk%3A6969","udp%3A%2F%2Fexodus.desync.com%3A6969"],"infoHash":"6db18d7271eb1c246b407255ed47cf797118fc63","infoHashBuffer":{"type":"Buffer","data":[109,177,141,114,113,235,28,36,107,64,114,85,237,71,207,121,113,24,252,99]},"announce":[],"urlList":[]}}